<?xml version="1.0" encoding="utf-8"?>
<!-- Generator: Adobe Illustrator 16.0.0, SVG Export Plug-In . SVG Version: 6.00 Build 0)  -->
<!DOCTYPE svg PUBLIC "-//W3C//DTD SVG 1.1//EN" "http://www.w3.org/Graphics/SVG/1.1/DTD/svg11.dtd">
<svg version="1.1" id="Layer_1" xmlns="http://www.w3.org/2000/svg" xmlns:xlink="http://www.w3.org/1999/xlink" x="0px" y="0px"
	 width="458.171px" height="396.964px" viewBox="0 0 458.171 396.964" enable-background="new 0 0 458.171 396.964"
	 xml:space="preserve">
<g>
	<title>Layer 1</title>
	<path id="svg_1" fill="#0576AB" d="M367.3,229.764c0-1.2,0.2-2.4,0.2-3.6c0-64.3-52.8-117.2-116.8-117.2
		c-46.1,0-85.8,27.9-104.4,67c-8.1-4.1-17.1-6.4-26.8-6.4c-29.6,0-54.1,23.7-58.9,52c-35.2,12.2-60.6,44.2-60.6,83.8
		c0,49.8,40.1,91.6,89.6,91.6H366c45,0,82-38.9,82-84.3C448,267.063,412.6,229.864,367.3,229.764z M365.5,380.563l-3.2,0.4H90.4
		c-40.9,0-74.2-34.9-74.2-76.1c0-31.9,20.2-58.4,50.2-68.8l8.4-3l1.5-8.8c3.6-21.6,22.1-39.3,43.9-39.3c6.9,0,13.7,1.6,19.9,4.8
		l13.5,6.8l6.5-13.7c16.6-34.9,52.1-58.2,90.4-58.2c55.3,0,100.9,44.1,100.9,99.7c0,13.3-0.2,20.3-0.2,20.3l15.2,0.1
		c36.699,0.5,65.6,30.5,65.6,67.4C432,349.063,402.2,380.364,365.5,380.563L365.5,380.563L365.5,380.563L365.5,380.563
		L365.5,380.563L365.5,380.563L365.5,380.563L365.5,380.563L365.5,380.563L365.5,380.563L365.5,380.563L365.5,380.563L365.5,380.563
		L365.5,380.563z"/>
	<g id="svg_10">
		
			<ellipse id="svg_7" transform="matrix(-0.0872 -0.9962 0.9962 -0.0872 210.1424 281.4028)" fill="#FCB03C" cx="234" cy="44.422" rx="40" ry="225"/>
		
			<ellipse id="svg_9" transform="matrix(-0.0872 -0.9962 0.9962 -0.0872 212.3247 279.403)" fill="#FFFFFF" cx="234.175" cy="42.422" rx="20" ry="179.999"/>
	</g>
</g>
</svg>
